ISO-10303-21;

HEADER;
FILE_DESCRIPTION((' '),'2;1');
FILE_NAME( '\X2\624B73AF\X0\.stp',
           '2026-08-14T17:30:09',
           (' '),
           ('--- Datakit www.datakit.com---'),
           ' Datakit CrossCadWare V2025.1  Dec 16 2024',
           'DATAKIT 2026 (c)',
           ' ');
FILE_SCHEMA(('AP242_MANAGED_MODEL_BASED_3D_ENGINEERING_MIM_LF { 1 0 10303 442 1 1 4 }'));
ENDSEC;

DATA;
#1=APPLICATION_CONTEXT('Managed model based 3d engineering');
#2=APPLICATION_PROTOCOL_DEFINITION('international standard','ap242_managed_model_based_3d_engineering',2013,#1);
#3=(LENGTH_UNIT()NAMED_UNIT(*)SI_UNIT(.MILLI.,.METRE.));
#4=(NAMED_UNIT(*)PLANE_ANGLE_UNIT()SI_UNIT($,.RADIAN.));
#5=( GEOMETRIC_REPRESENTATION_CONTEXT(3)
       GLOBAL_UNCERTAINTY_ASSIGNED_CONTEXT((#6)) GLOBAL_UNIT_ASSIGNED_CONTEXT
  ((#3,#4)) REPRESENTATION_CONTEXT('Context #1',
  '3D Context with UNIT and UNCERTAINTY') );
#6=UNCERTAINTY_MEASURE_WITH_UNIT(LENGTH_MEASURE(0.005),#3,'distance_accuracy_value','Confusion accuracy');
#7=PRODUCT_CONTEXT('',#1,'mechanical');
#8=PRODUCT('\X2\624B73AF\X0\','','',(#7));
#9=PRODUCT_DEFINITION_FORMATION('','',#8);
#10=PRODUCT_DEFINITION_CONTEXT('part definition',#1,'design');
#11=PRODUCT_DEFINITION('design','',#9,#10);
#12=PRODUCT_DEFINITION_SHAPE('','',#11);
#13=PRODUCT_CATEGORY('part',$);
#14=PRODUCT_RELATED_PRODUCT_CATEGORY('part',$,(#8));
#15=PRODUCT_CATEGORY_RELATIONSHIP('','',#13,#14);
#16=CARTESIAN_POINT('',(40.6433043613,2.5167130144,-26.8410191337));
#17=VERTEX_POINT('',#16);
#18=CARTESIAN_POINT('',(32.6433043613,2.5167130144,-26.8410191337));
#19=VERTEX_POINT('',#18);
#20=CARTESIAN_POINT('',(32.6433043613,2.5167130144,-26.8410191337));
#21=DIRECTION('',(-1.0,0.0,0.0));
#22=VECTOR('',#21,1.0);
#23=LINE('',#20,#22);
#24=EDGE_CURVE('n° 229',#17,#19,#23,.T.);
#25=ORIENTED_EDGE('',*,*,#24,.T.);
#26=CARTESIAN_POINT('',(32.6433043613,-14.4832869856,-26.8410191337));
#27=VERTEX_POINT('',#26);
#28=CARTESIAN_POINT('',(32.6433043613,2.5167130144,-26.8410191337));
#29=DIRECTION('',(0.0,-1.0,0.0));
#30=VECTOR('',#29,1.0);
#31=LINE('',#28,#30);
#32=EDGE_CURVE('n° 225',#19,#27,#31,.T.);
#33=ORIENTED_EDGE('',*,*,#32,.T.);
#34=CARTESIAN_POINT('',(40.6433043613,-14.4832869856,-26.8410191337));
#35=VERTEX_POINT('',#34);
#36=CARTESIAN_POINT('',(32.6433043613,-14.4832869856,-26.8410191337));
#37=DIRECTION('',(1.0,0.0,0.0));
#38=VECTOR('',#37,1.0);
#39=LINE('',#36,#38);
#40=EDGE_CURVE('n° 237',#27,#35,#39,.T.);
#41=ORIENTED_EDGE('',*,*,#40,.T.);
#42=CARTESIAN_POINT('',(40.6433043613,2.5167130144,-26.8410191337));
#43=DIRECTION('',(0.0,1.0,0.0));
#44=VECTOR('',#43,1.0);
#45=LINE('',#42,#44);
#46=EDGE_CURVE('n° 233',#35,#17,#45,.T.);
#47=ORIENTED_EDGE('',*,*,#46,.T.);
#48=EDGE_LOOP('',(#25,#33,#41,#47));
#49=FACE_OUTER_BOUND('',#48,.T.);
#50=CARTESIAN_POINT('',(0.0,0.0,-26.8410191337));
#51=DIRECTION('',(-0.0,0.0,1.0));
#52=DIRECTION('',(1.0,0.0,0.0));
#53=AXIS2_PLACEMENT_3D('',#50,#51,#52);
#54=PLANE('',#53);
#55=ADVANCED_FACE('n° 756',(#49),#54,.T.);
#56=CARTESIAN_POINT('',(11.6433043613,-5.9832869856,-16.8410191337));
#57=VERTEX_POINT('',#56);
#58=CARTESIAN_POINT('',(21.6433043613,-5.9832869856,-16.8410191337));
#59=DIRECTION('',(-0.0,-0.0,-1.0));
#60=DIRECTION('',(-1.0,0.0,0.0));
#61=AXIS2_PLACEMENT_3D('',#58,#59,#60);
#62=CIRCLE('',#61,10.0);
#63=EDGE_CURVE('n° 390',#57,#57,#62,.T.);
#64=ORIENTED_EDGE('',*,*,#63,.T.);
#65=EDGE_LOOP('',(#64));
#66=FACE_OUTER_BOUND('',#65,.T.);
#67=CARTESIAN_POINT('',(38.6433043613,2.5167130144,-16.8410191337));
#68=VERTEX_POINT('',#67);
#69=CARTESIAN_POINT('',(38.6433043613,30.0147458399,-16.8410191337));
#70=VERTEX_POINT('',#69);
#71=CARTESIAN_POINT('',(38.6433043613,-7.9852541601,-16.8410191337));
#72=DIRECTION('',(0.0,1.0,0.0));
#73=VECTOR('',#72,1.0);
#74=LINE('',#71,#73);
#75=EDGE_CURVE('n° 565',#68,#70,#74,.T.);
#76=ORIENTED_EDGE('',*,*,#75,.F.);
#77=CARTESIAN_POINT('',(40.6433043613,2.5167130144,-16.8410191337));
#78=VERTEX_POINT('',#77);
#79=CARTESIAN_POINT('',(32.6433043613,2.5167130144,-16.8410191337));
#80=DIRECTION('',(-1.0,0.0,0.0));
#81=VECTOR('',#80,1.0);
#82=LINE('',#79,#81);
#83=EDGE_CURVE('n° 250',#78,#68,#82,.T.);
#84=ORIENTED_EDGE('',*,*,#83,.F.);
#85=CARTESIAN_POINT('',(40.6433043613,-14.4832869856,-16.8410191337));
#86=VERTEX_POINT('',#85);
#87=CARTESIAN_POINT('',(40.6433043613,2.5167130144,-16.8410191337));
#88=DIRECTION('',(0.0,1.0,0.0));
#89=VECTOR('',#88,1.0);
#90=LINE('',#87,#89);
#91=EDGE_CURVE('n° 247',#86,#78,#90,.T.);
#92=ORIENTED_EDGE('',*,*,#91,.F.);
#93=CARTESIAN_POINT('',(32.6433043613,-14.4832869856,-16.8410191337));
#94=VERTEX_POINT('',#93);
#95=CARTESIAN_POINT('',(32.6433043613,-14.4832869856,-16.8410191337));
#96=DIRECTION('',(1.0,0.0,0.0));
#97=VECTOR('',#96,1.0);
#98=LINE('',#95,#97);
#99=EDGE_CURVE('n° 244',#94,#86,#98,.T.);
#100=ORIENTED_EDGE('',*,*,#99,.F.);
#101=CARTESIAN_POINT('',(32.6433043613,2.5167130144,-16.8410191337));
#102=VERTEX_POINT('',#101);
#103=CARTESIAN_POINT('',(32.6433043613,2.5167130144,-16.8410191337));
#104=DIRECTION('',(0.0,-1.0,0.0));
#105=VECTOR('',#104,1.0);
#106=LINE('',#103,#105);
#107=EDGE_CURVE('n° 241',#102,#94,#106,.T.);
#108=ORIENTED_EDGE('',*,*,#107,.F.);
#109=CARTESIAN_POINT('',(34.6433043613,2.5167130144,-16.8410191337));
#110=VERTEX_POINT('',#109);
#111=CARTESIAN_POINT('',(32.6433043613,2.5167130144,-16.8410191337));
#112=DIRECTION('',(-1.0,0.0,0.0));
#113=VECTOR('',#112,1.0);
#114=LINE('',#111,#113);
#115=EDGE_CURVE('n° 522',#110,#102,#114,.T.);
#116=ORIENTED_EDGE('',*,*,#115,.F.);
#117=CARTESIAN_POINT('',(34.6433043613,30.0147458399,-16.8410191337));
#118=VERTEX_POINT('',#117);
#119=CARTESIAN_POINT('',(34.6433043613,-7.9852541601,-16.8410191337));
#120=DIRECTION('',(0.0,1.0,0.0));
#121=VECTOR('',#120,1.0);
#122=LINE('',#119,#121);
#123=EDGE_CURVE('n° 575',#110,#118,#122,.T.);
#124=ORIENTED_EDGE('',*,*,#123,.T.);
#125=CARTESIAN_POINT('',(-0.8033213445,30.0147458399,-16.8410191337));
#126=VERTEX_POINT('',#125);
#127=CARTESIAN_POINT('',(43.6966786555,30.0147458399,-16.8410191337));
#128=DIRECTION('',(-1.0,0.0,0.0));
#129=VECTOR('',#128,1.0);
#130=LINE('',#127,#129);
#131=EDGE_CURVE('n° 538',#118,#126,#130,.T.);
#132=ORIENTED_EDGE('',*,*,#131,.T.);
#133=CARTESIAN_POINT('',(-0.8033213445,-18.9852541601,-16.8410191337));
#134=VERTEX_POINT('',#133);
#135=CARTESIAN_POINT('',(-0.8033213445,-69.3290720527,-16.8410191337));
#136=DIRECTION('',(0.0,1.0,0.0));
#137=VECTOR('',#136,1.0);
#138=LINE('',#135,#137);
#139=EDGE_CURVE('n° 13',#134,#126,#138,.T.);
#140=ORIENTED_EDGE('',*,*,#139,.F.);
#141=CARTESIAN_POINT('',(43.6966786555,-18.9852541601,-16.8410191337));
#142=VERTEX_POINT('',#141);
#143=CARTESIAN_POINT('',(43.6966786555,-18.9852541601,-16.8410191337));
#144=DIRECTION('',(-1.0,0.0,0.0));
#145=VECTOR('',#144,1.0);
#146=LINE('',#143,#145);
#147=EDGE_CURVE('n° 39',#142,#134,#146,.T.);
#148=ORIENTED_EDGE('',*,*,#147,.F.);
#149=CARTESIAN_POINT('',(43.6966786555,30.0147458399,-16.8410191337));
#150=VERTEX_POINT('',#149);
#151=CARTESIAN_POINT('',(43.6966786555,-69.3290720527,-16.8410191337));
#152=DIRECTION('',(0.0,1.0,0.0));
#153=VECTOR('',#152,1.0);
#154=LINE('',#151,#153);
#155=EDGE_CURVE('n° 9',#142,#150,#154,.T.);
#156=ORIENTED_EDGE('',*,*,#155,.T.);
#157=CARTESIAN_POINT('',(43.6966786555,30.0147458399,-16.8410191337));
#158=DIRECTION('',(-1.0,0.0,0.0));
#159=VECTOR('',#158,1.0);
#160=LINE('',#157,#159);
#161=EDGE_CURVE('n° 10',#150,#70,#160,.T.);
#162=ORIENTED_EDGE('',*,*,#161,.T.);
#163=EDGE_LOOP('',(
    #76,#84,#92,#100,#108,#116,#124,#132,#140,#148,
    #156,#162));
#164=FACE_BOUND('',#163,.T.);
#165=CARTESIAN_POINT('',(43.6966786555,-69.3290720527,-16.8410191337));
#166=DIRECTION('',(-0.0,-0.0,-1.0));
#167=DIRECTION('',(-1.0,0.0,0.0));
#168=AXIS2_PLACEMENT_3D('',#165,#166,#167);
#169=PLANE('',#168);
#170=ADVANCED_FACE('n° 560',(#66,#164),#169,.F.);
#171=CARTESIAN_POINT('',(34.6433043613,30.0147458399,-25.8410191337));
#172=VERTEX_POINT('',#171);
#173=CARTESIAN_POINT('',(38.6433043613,30.0147458399,-25.8410191337));
#174=VERTEX_POINT('',#173);
#175=CARTESIAN_POINT('',(34.6433043613,30.0147458399,-25.8410191337));
#176=DIRECTION('',(1.0,0.0,0.0));
#177=VECTOR('',#176,1.0);
#178=LINE('',#175,#177);
#179=EDGE_CURVE('n° 768',#172,#174,#178,.T.);
#180=ORIENTED_EDGE('',*,*,#179,.T.);
#181=CARTESIAN_POINT('',(38.6433043613,30.0147458399,-0.0));
#182=DIRECTION('',(0.0,0.0,1.0));
#183=VECTOR('',#182,1.0);
#184=LINE('',#181,#183);
#185=EDGE_CURVE('n° 745',#174,#70,#184,.T.);
#186=ORIENTED_EDGE('',*,*,#185,.T.);
#187=ORIENTED_EDGE('',*,*,#161,.F.);
#188=CARTESIAN_POINT('',(45.6966786555,30.0147458399,-18.8410191337));
#189=VERTEX_POINT('',#188);
#190=CARTESIAN_POINT('',(43.6966786555,30.0147458399,-18.8410191337));
#191=DIRECTION('',(0.0,-1.0,0.0));
#192=DIRECTION('',(0.0,-0.0,-1.0));
#193=AXIS2_PLACEMENT_3D('',#190,#191,#192);
#194=CIRCLE('',#193,2.0);
#195=EDGE_CURVE('n° 6',#189,#150,#194,.T.);
#196=ORIENTED_EDGE('',*,*,#195,.F.);
#197=CARTESIAN_POINT('',(45.6966786555,30.0147458399,-28.3410191337));
#198=VERTEX_POINT('',#197);
#199=CARTESIAN_POINT('',(45.6966786555,30.0147458399,-28.3410191337));
#200=DIRECTION('',(0.0,0.0,1.0));
#201=VECTOR('',#200,1.0);
#202=LINE('',#199,#201);
#203=EDGE_CURVE('n° 34',#198,#189,#202,.T.);
#204=ORIENTED_EDGE('',*,*,#203,.F.);
#205=CARTESIAN_POINT('',(43.6966786555,30.0147458399,-30.3410191337));
#206=VERTEX_POINT('',#205);
#207=CARTESIAN_POINT('',(43.6966786555,30.0147458399,-28.3410191337));
#208=DIRECTION('',(0.0,-1.0,0.0));
#209=DIRECTION('',(0.0,-0.0,-1.0));
#210=AXIS2_PLACEMENT_3D('',#207,#208,#209);
#211=CIRCLE('',#210,2.0);
#212=EDGE_CURVE('n° 30',#206,#198,#211,.T.);
#213=ORIENTED_EDGE('',*,*,#212,.F.);
#214=CARTESIAN_POINT('',(-0.8033213445,30.0147458399,-30.3410191337));
#215=VERTEX_POINT('',#214);
#216=CARTESIAN_POINT('',(-0.8033213445,30.0147458399,-30.3410191337));
#217=DIRECTION('',(1.0,0.0,0.0));
#218=VECTOR('',#217,1.0);
#219=LINE('',#216,#218);
#220=EDGE_CURVE('n° 26',#215,#206,#219,.T.);
#221=ORIENTED_EDGE('',*,*,#220,.F.);
#222=CARTESIAN_POINT('',(-2.8033213445,30.0147458399,-28.3410191337));
#223=VERTEX_POINT('',#222);
#224=CARTESIAN_POINT('',(-0.8033213445,30.0147458399,-28.3410191337));
#225=DIRECTION('',(0.0,-1.0,0.0));
#226=DIRECTION('',(0.0,-0.0,-1.0));
#227=AXIS2_PLACEMENT_3D('',#224,#225,#226);
#228=CIRCLE('',#227,2.0);
#229=EDGE_CURVE('n° 22',#223,#215,#228,.T.);
#230=ORIENTED_EDGE('',*,*,#229,.F.);
#231=CARTESIAN_POINT('',(-2.8033213445,30.0147458399,-18.8410191337));
#232=VERTEX_POINT('',#231);
#233=CARTESIAN_POINT('',(-2.8033213445,30.0147458399,-18.8410191337));
#234=DIRECTION('',(0.0,0.0,-1.0));
#235=VECTOR('',#234,1.0);
#236=LINE('',#233,#235);
#237=EDGE_CURVE('n° 18',#232,#223,#236,.T.);
#238=ORIENTED_EDGE('',*,*,#237,.F.);
#239=CARTESIAN_POINT('',(-0.8033213445,30.0147458399,-18.8410191337));
#240=DIRECTION('',(0.0,-1.0,0.0));
#241=DIRECTION('',(0.0,-0.0,-1.0));
#242=AXIS2_PLACEMENT_3D('',#239,#240,#241);
#243=CIRCLE('',#242,2.0);
#244=EDGE_CURVE('n° 14',#126,#232,#243,.T.);
#245=ORIENTED_EDGE('',*,*,#244,.F.);
#246=ORIENTED_EDGE('',*,*,#131,.F.);
#247=CARTESIAN_POINT('',(34.6433043613,30.0147458399,-0.0));
#248=DIRECTION('',(0.0,0.0,1.0));
#249=VECTOR('',#248,1.0);
#250=LINE('',#247,#249);
#251=EDGE_CURVE('n° 730',#172,#118,#250,.T.);
#252=ORIENTED_EDGE('',*,*,#251,.F.);
#253=EDGE_LOOP('',(
    #180,#186,#187,#196,#204,#213,#221,#230,#238,#245,
    #246,#252));
#254=FACE_OUTER_BOUND('',#253,.T.);
#255=CARTESIAN_POINT('',(21.6966786555,30.0147458399,-19.5910191337));
#256=VERTEX_POINT('',#255);
#257=CARTESIAN_POINT('',(21.6966786555,30.0147458399,-24.3410191337));
#258=DIRECTION('',(0.0,1.0,0.0));
#259=DIRECTION('',(0.0,-0.0,1.0));
#260=AXIS2_PLACEMENT_3D('',#257,#258,#259);
#261=CIRCLE('',#260,4.75);
#262=EDGE_CURVE('n° 455',#256,#256,#261,.T.);
#263=ORIENTED_EDGE('',*,*,#262,.F.);
#264=EDGE_LOOP('',(#263));
#265=FACE_BOUND('',#264,.T.);
#266=CARTESIAN_POINT('',(43.6966786555,30.0147458399,-18.8410191337));
#267=DIRECTION('',(0.0,-1.0,0.0));
#268=DIRECTION('',(0.0,-0.0,-1.0));
#269=AXIS2_PLACEMENT_3D('',#266,#267,#268);
#270=PLANE('',#269);
#271=ADVANCED_FACE('n° 552',(#254,#265),#270,.F.);
#272=CARTESIAN_POINT('',(45.6966786555,-18.9852541601,-18.8410191337));
#273=VERTEX_POINT('',#272);
#274=CARTESIAN_POINT('',(43.6966786555,-18.9852541601,-18.8410191337));
#275=DIRECTION('',(-0.0,-1.0,0.0));
#276=DIRECTION('',(0.0,-0.0,-1.0));
#277=AXIS2_PLACEMENT_3D('',#274,#275,#276);
#278=CIRCLE('',#277,2.0);
#279=EDGE_CURVE('n° 38',#273,#142,#278,.T.);
#280=ORIENTED_EDGE('',*,*,#279,.F.);
#281=CARTESIAN_POINT('',(45.6966786555,-69.3290720527,-18.8410191337));
#282=DIRECTION('',(0.0,1.0,0.0));
#283=VECTOR('',#282,1.0);
#284=LINE('',#281,#283);
#285=EDGE_CURVE('n° 5',#273,#189,#284,.T.);
#286=ORIENTED_EDGE('',*,*,#285,.T.);
#287=ORIENTED_EDGE('',*,*,#195,.T.);
#288=ORIENTED_EDGE('',*,*,#155,.F.);
#289=EDGE_LOOP('',(#280,#286,#287,#288));
#290=FACE_OUTER_BOUND('',#289,.T.);
#291=CARTESIAN_POINT('',(43.6966786555,-69.3290720527,-18.8410191337));
#292=DIRECTION('',(-0.0,1.0,-0.0));
#293=DIRECTION('',(0.0,0.0,1.0));
#294=AXIS2_PLACEMENT_3D('',#291,#292,#293);
#295=CYLINDRICAL_SURFACE('',#294,2.0);
#296=ADVANCED_FACE('n° 61',(#290),#295,.T.);
#297=CARTESIAN_POINT('',(-2.8033213445,-18.9852541601,-18.8410191337));
#298=VERTEX_POINT('',#297);
#299=CARTESIAN_POINT('',(-0.8033213445,-18.9852541601,-18.8410191337));
#300=DIRECTION('',(-0.0,-1.0,0.0));
#301=DIRECTION('',(0.0,-0.0,-1.0));
#302=AXIS2_PLACEMENT_3D('',#299,#300,#301);
#303=CIRCLE('',#302,2.0);
#304=EDGE_CURVE('n° 40',#134,#298,#303,.T.);
#305=ORIENTED_EDGE('',*,*,#304,.F.);
#306=ORIENTED_EDGE('',*,*,#139,.T.);
#307=ORIENTED_EDGE('',*,*,#244,.T.);
#308=CARTESIAN_POINT('',(-2.8033213445,-69.3290720527,-18.8410191337));
#309=DIRECTION('',(0.0,1.0,0.0));
#310=VECTOR('',#309,1.0);
#311=LINE('',#308,#310);
#312=EDGE_CURVE('n° 17',#298,#232,#311,.T.);
#313=ORIENTED_EDGE('',*,*,#312,.F.);
#314=EDGE_LOOP('',(#305,#306,#307,#313));
#315=FACE_OUTER_BOUND('',#314,.T.);
#316=CARTESIAN_POINT('',(-0.8033213445,-69.3290720527,-18.8410191337));
#317=DIRECTION('',(-0.0,1.0,-0.0));
#318=DIRECTION('',(0.0,0.0,1.0));
#319=AXIS2_PLACEMENT_3D('',#316,#317,#318);
#320=CYLINDRICAL_SURFACE('',#319,2.0);
#321=ADVANCED_FACE('n° 69',(#315),#320,.T.);
#322=CARTESIAN_POINT('',(-2.8033213445,-18.9852541601,-28.3410191337));
#323=VERTEX_POINT('',#322);
#324=CARTESIAN_POINT('',(-2.8033213445,-18.9852541601,-18.8410191337));
#325=DIRECTION('',(0.0,0.0,-1.0));
#326=VECTOR('',#325,1.0);
#327=LINE('',#324,#326);
#328=EDGE_CURVE('n° 41',#298,#323,#327,.T.);
#329=ORIENTED_EDGE('',*,*,#328,.F.);
#330=ORIENTED_EDGE('',*,*,#312,.T.);
#331=ORIENTED_EDGE('',*,*,#237,.T.);
#332=CARTESIAN_POINT('',(-2.8033213445,-69.3290720527,-28.3410191337));
#333=DIRECTION('',(0.0,1.0,0.0));
#334=VECTOR('',#333,1.0);
#335=LINE('',#332,#334);
#336=EDGE_CURVE('n° 21',#323,#223,#335,.T.);
#337=ORIENTED_EDGE('',*,*,#336,.F.);
#338=EDGE_LOOP('',(#329,#330,#331,#337));
#339=FACE_OUTER_BOUND('',#338,.T.);
#340=CARTESIAN_POINT('',(-2.8033213445,-69.3290720527,-18.8410191337));
#341=DIRECTION('',(1.0,0.0,0.0));
#342=DIRECTION('',(0.0,0.0,-1.0));
#343=AXIS2_PLACEMENT_3D('',#340,#341,#342);
#344=PLANE('',#343);
#345=ADVANCED_FACE('n° 73',(#339),#344,.F.);
#346=CARTESIAN_POINT('',(-0.8033213445,-18.9852541601,-30.3410191337));
#347=VERTEX_POINT('',#346);
#348=CARTESIAN_POINT('',(-0.8033213445,-18.9852541601,-28.3410191337));
#349=DIRECTION('',(-0.0,-1.0,0.0));
#350=DIRECTION('',(0.0,-0.0,-1.0));
#351=AXIS2_PLACEMENT_3D('',#348,#349,#350);
#352=CIRCLE('',#351,2.0);
#353=EDGE_CURVE('n° 42',#323,#347,#352,.T.);
#354=ORIENTED_EDGE('',*,*,#353,.F.);
#355=ORIENTED_EDGE('',*,*,#336,.T.);
#356=ORIENTED_EDGE('',*,*,#229,.T.);
#357=CARTESIAN_POINT('',(-0.8033213445,-69.3290720527,-30.3410191337));
#358=DIRECTION('',(0.0,1.0,0.0));
#359=VECTOR('',#358,1.0);
#360=LINE('',#357,#359);
#361=EDGE_CURVE('n° 25',#347,#215,#360,.T.);
#362=ORIENTED_EDGE('',*,*,#361,.F.);
#363=EDGE_LOOP('',(#354,#355,#356,#362));
#364=FACE_OUTER_BOUND('',#363,.T.);
#365=CARTESIAN_POINT('',(-0.8033213445,-69.3290720527,-28.3410191337));
#366=DIRECTION('',(-0.0,1.0,-0.0));
#367=DIRECTION('',(0.0,0.0,1.0));
#368=AXIS2_PLACEMENT_3D('',#365,#366,#367);
#369=CYLINDRICAL_SURFACE('',#368,2.0);
#370=ADVANCED_FACE('n° 77',(#364),#369,.T.);
#371=CARTESIAN_POINT('',(43.6966786555,-18.9852541601,-30.3410191337));
#372=VERTEX_POINT('',#371);
#373=CARTESIAN_POINT('',(-0.8033213445,-18.9852541601,-30.3410191337));
#374=DIRECTION('',(1.0,0.0,0.0));
#375=VECTOR('',#374,1.0);
#376=LINE('',#373,#375);
#377=EDGE_CURVE('n° 43',#347,#372,#376,.T.);
#378=ORIENTED_EDGE('',*,*,#377,.F.);
#379=ORIENTED_EDGE('',*,*,#361,.T.);
#380=ORIENTED_EDGE('',*,*,#220,.T.);
#381=CARTESIAN_POINT('',(43.6966786555,-69.3290720527,-30.3410191337));
#382=DIRECTION('',(0.0,1.0,0.0));
#383=VECTOR('',#382,1.0);
#384=LINE('',#381,#383);
#385=EDGE_CURVE('n° 29',#372,#206,#384,.T.);
#386=ORIENTED_EDGE('',*,*,#385,.F.);
#387=EDGE_LOOP('',(#378,#379,#380,#386));
#388=FACE_OUTER_BOUND('',#387,.T.);
#389=CARTESIAN_POINT('',(-0.8033213445,-69.3290720527,-30.3410191337));
#390=DIRECTION('',(-0.0,0.0,1.0));
#391=DIRECTION('',(1.0,0.0,0.0));
#392=AXIS2_PLACEMENT_3D('',#389,#390,#391);
#393=PLANE('',#392);
#394=ADVANCED_FACE('n° 81',(#388),#393,.F.);
#395=CARTESIAN_POINT('',(45.6966786555,-18.9852541601,-28.3410191337));
#396=VERTEX_POINT('',#395);
#397=CARTESIAN_POINT('',(43.6966786555,-18.9852541601,-28.3410191337));
#398=DIRECTION('',(-0.0,-1.0,0.0));
#399=DIRECTION('',(0.0,-0.0,-1.0));
#400=AXIS2_PLACEMENT_3D('',#397,#398,#399);
#401=CIRCLE('',#400,2.0);
#402=EDGE_CURVE('n° 44',#372,#396,#401,.T.);
#403=ORIENTED_EDGE('',*,*,#402,.F.);
#404=ORIENTED_EDGE('',*,*,#385,.T.);
#405=ORIENTED_EDGE('',*,*,#212,.T.);
#406=CARTESIAN_POINT('',(45.6966786555,-69.3290720527,-28.3410191337));
#407=DIRECTION('',(0.0,1.0,0.0));
#408=VECTOR('',#407,1.0);
#409=LINE('',#406,#408);
#410=EDGE_CURVE('n° 33',#396,#198,#409,.T.);
#411=ORIENTED_EDGE('',*,*,#410,.F.);
#412=EDGE_LOOP('',(#403,#404,#405,#411));
#413=FACE_OUTER_BOUND('',#412,.T.);
#414=CARTESIAN_POINT('',(43.6966786555,-69.3290720527,-28.3410191337));
#415=DIRECTION('',(-0.0,1.0,-0.0));
#416=DIRECTION('',(0.0,0.0,1.0));
#417=AXIS2_PLACEMENT_3D('',#414,#415,#416);
#418=CYLINDRICAL_SURFACE('',#417,2.0);
#419=ADVANCED_FACE('n° 85',(#413),#418,.T.);
#420=CARTESIAN_POINT('',(45.6966786555,-18.9852541601,-28.3410191337));
#421=DIRECTION('',(0.0,0.0,1.0));
#422=VECTOR('',#421,1.0);
#423=LINE('',#420,#422);
#424=EDGE_CURVE('n° 37',#396,#273,#423,.T.);
#425=ORIENTED_EDGE('',*,*,#424,.F.);
#426=ORIENTED_EDGE('',*,*,#410,.T.);
#427=ORIENTED_EDGE('',*,*,#203,.T.);
#428=ORIENTED_EDGE('',*,*,#285,.F.);
#429=EDGE_LOOP('',(#425,#426,#427,#428));
#430=FACE_OUTER_BOUND('',#429,.T.);
#431=CARTESIAN_POINT('',(45.6966786555,-69.3290720527,-28.3410191337));
#432=DIRECTION('',(-1.0,0.0,0.0));
#433=DIRECTION('',(0.0,0.0,1.0));
#434=AXIS2_PLACEMENT_3D('',#431,#432,#433);
#435=PLANE('',#434);
#436=ADVANCED_FACE('n° 89',(#430),#435,.F.);
#437=ORIENTED_EDGE('',*,*,#424,.T.);
#438=ORIENTED_EDGE('',*,*,#279,.T.);
#439=ORIENTED_EDGE('',*,*,#147,.T.);
#440=ORIENTED_EDGE('',*,*,#304,.T.);
#441=ORIENTED_EDGE('',*,*,#328,.T.);
#442=ORIENTED_EDGE('',*,*,#353,.T.);
#443=ORIENTED_EDGE('',*,*,#377,.T.);
#444=ORIENTED_EDGE('',*,*,#402,.T.);
#445=EDGE_LOOP('',(#437,#438,#439,#440,#441,#442,#443,#444));
#446=FACE_OUTER_BOUND('',#445,.T.);
#447=CARTESIAN_POINT('',(46.6966786555,-18.9852541601,-49.8410191337));
#448=DIRECTION('',(-0.0,-1.0,0.0));
#449=DIRECTION('',(0.0,-0.0,-1.0));
#450=AXIS2_PLACEMENT_3D('',#447,#448,#449);
#451=PLANE('',#450);
#452=ADVANCED_FACE('n° 96',(#446),#451,.T.);
#453=ORIENTED_EDGE('',*,*,#107,.T.);
#454=CARTESIAN_POINT('',(32.6433043613,-14.4832869856,-26.8410191337));
#455=DIRECTION('',(0.0,0.0,1.0));
#456=VECTOR('',#455,1.0);
#457=LINE('',#454,#456);
#458=EDGE_CURVE('n° 228',#27,#94,#457,.T.);
#459=ORIENTED_EDGE('',*,*,#458,.F.);
#460=ORIENTED_EDGE('',*,*,#32,.F.);
#461=CARTESIAN_POINT('',(32.6433043613,2.5167130144,-26.8410191337));
#462=DIRECTION('',(0.0,0.0,1.0));
#463=VECTOR('',#462,1.0);
#464=LINE('',#461,#463);
#465=EDGE_CURVE('n° 232',#19,#102,#464,.T.);
#466=ORIENTED_EDGE('',*,*,#465,.T.);
#467=EDGE_LOOP('',(#453,#459,#460,#466));
#468=FACE_OUTER_BOUND('',#467,.T.);
#469=CARTESIAN_POINT('',(32.6433043613,2.5167130144,-26.8410191337));
#470=DIRECTION('',(-1.0,-0.0,-0.0));
#471=DIRECTION('',(-0.0,0.0,1.0));
#472=AXIS2_PLACEMENT_3D('',#469,#470,#471);
#473=PLANE('',#472);
#474=ADVANCED_FACE('n° 261',(#468),#473,.F.);
#475=ORIENTED_EDGE('',*,*,#465,.F.);
#476=ORIENTED_EDGE('',*,*,#24,.F.);
#477=CARTESIAN_POINT('',(40.6433043613,2.5167130144,-26.8410191337));
#478=DIRECTION('',(0.0,0.0,1.0));
#479=VECTOR('',#478,1.0);
#480=LINE('',#477,#479);
#481=EDGE_CURVE('n° 236',#17,#78,#480,.T.);
#482=ORIENTED_EDGE('',*,*,#481,.T.);
#483=ORIENTED_EDGE('',*,*,#83,.T.);
#484=CARTESIAN_POINT('',(38.6433043613,2.5167130144,-25.8410191337));
#485=VERTEX_POINT('',#484);
#486=CARTESIAN_POINT('',(38.6433043613,2.5167130144,-26.8410191337));
#487=DIRECTION('',(0.0,0.0,1.0));
#488=VECTOR('',#487,1.0);
#489=LINE('',#486,#488);
#490=EDGE_CURVE('n° 742',#485,#68,#489,.T.);
#491=ORIENTED_EDGE('',*,*,#490,.F.);
#492=CARTESIAN_POINT('',(34.6433043613,2.5167130144,-25.8410191337));
#493=VERTEX_POINT('',#492);
#494=CARTESIAN_POINT('',(34.6433043613,2.5167130144,-25.8410191337));
#495=DIRECTION('',(-1.0,0.0,0.0));
#496=VECTOR('',#495,1.0);
#497=LINE('',#494,#496);
#498=EDGE_CURVE('n° 780',#485,#493,#497,.T.);
#499=ORIENTED_EDGE('',*,*,#498,.T.);
#500=CARTESIAN_POINT('',(34.6433043613,2.5167130144,-26.8410191337));
#501=DIRECTION('',(0.0,0.0,1.0));
#502=VECTOR('',#501,1.0);
#503=LINE('',#500,#502);
#504=EDGE_CURVE('n° 733',#493,#110,#503,.T.);
#505=ORIENTED_EDGE('',*,*,#504,.T.);
#506=ORIENTED_EDGE('',*,*,#115,.T.);
#507=EDGE_LOOP('',(#475,#476,#482,#483,#491,#499,#505,#506));
#508=FACE_OUTER_BOUND('',#507,.T.);
#509=CARTESIAN_POINT('',(32.6433043613,2.5167130144,-26.8410191337));
#510=DIRECTION('',(-0.0,1.0,0.0));
#511=DIRECTION('',(0.0,-0.0,1.0));
#512=AXIS2_PLACEMENT_3D('',#509,#510,#511);
#513=PLANE('',#512);
#514=ADVANCED_FACE('n° 265',(#508),#513,.F.);
#515=ORIENTED_EDGE('',*,*,#91,.T.);
#516=ORIENTED_EDGE('',*,*,#481,.F.);
#517=ORIENTED_EDGE('',*,*,#46,.F.);
#518=CARTESIAN_POINT('',(40.6433043613,-14.4832869856,-26.8410191337));
#519=DIRECTION('',(0.0,0.0,1.0));
#520=VECTOR('',#519,1.0);
#521=LINE('',#518,#520);
#522=EDGE_CURVE('n° 240',#35,#86,#521,.T.);
#523=ORIENTED_EDGE('',*,*,#522,.T.);
#524=EDGE_LOOP('',(#515,#516,#517,#523));
#525=FACE_OUTER_BOUND('',#524,.T.);
#526=CARTESIAN_POINT('',(40.6433043613,2.5167130144,-26.8410191337));
#527=DIRECTION('',(1.0,0.0,0.0));
#528=DIRECTION('',(0.0,0.0,-1.0));
#529=AXIS2_PLACEMENT_3D('',#526,#527,#528);
#530=PLANE('',#529);
#531=ADVANCED_FACE('n° 269',(#525),#530,.F.);
#532=ORIENTED_EDGE('',*,*,#99,.T.);
#533=ORIENTED_EDGE('',*,*,#522,.F.);
#534=ORIENTED_EDGE('',*,*,#40,.F.);
#535=ORIENTED_EDGE('',*,*,#458,.T.);
#536=EDGE_LOOP('',(#532,#533,#534,#535));
#537=FACE_OUTER_BOUND('',#536,.T.);
#538=CARTESIAN_POINT('',(32.6433043613,-14.4832869856,-26.8410191337));
#539=DIRECTION('',(0.0,-1.0,0.0));
#540=DIRECTION('',(0.0,-0.0,-1.0));
#541=AXIS2_PLACEMENT_3D('',#538,#539,#540);
#542=PLANE('',#541);
#543=ADVANCED_FACE('n° 273',(#537),#542,.F.);
#544=CARTESIAN_POINT('',(29.6433043613,-5.9832869856,-18.8410191337));
#545=VERTEX_POINT('',#544);
#546=CARTESIAN_POINT('',(21.6433043613,-5.9832869856,-18.8410191337));
#547=DIRECTION('',(0.0,0.0,1.0));
#548=DIRECTION('',(1.0,0.0,-0.0));
#549=AXIS2_PLACEMENT_3D('',#546,#547,#548);
#550=CIRCLE('',#549,8.0);
#551=EDGE_CURVE('n° 397',#545,#545,#550,.T.);
#552=ORIENTED_EDGE('',*,*,#551,.T.);
#553=EDGE_LOOP('',(#552));
#554=FACE_OUTER_BOUND('',#553,.T.);
#555=CARTESIAN_POINT('',(21.6433043613,-5.9832869856,-18.8410191337));
#556=DIRECTION('',(0.0,0.0,1.0));
#557=DIRECTION('',(1.0,0.0,-0.0));
#558=AXIS2_PLACEMENT_3D('',#555,#556,#557);
#559=PLANE('',#558);
#560=ADVANCED_FACE('n° 363',(#554),#559,.T.);
#561=ORIENTED_EDGE('',*,*,#551,.F.);
#562=EDGE_LOOP('',(#561));
#563=FACE_OUTER_BOUND('',#562,.T.);
#564=CARTESIAN_POINT('',(30.6433043613,-5.9832869856,-17.8410191337));
#565=VERTEX_POINT('',#564);
#566=CARTESIAN_POINT('',(21.6433043613,-5.9832869856,-17.8410191337));
#567=DIRECTION('',(-0.0,-0.0,-1.0));
#568=DIRECTION('',(1.0,0.0,-0.0));
#569=AXIS2_PLACEMENT_3D('',#566,#567,#568);
#570=CIRCLE('',#569,9.0);
#571=EDGE_CURVE('n° 421',#565,#565,#570,.T.);
#572=ORIENTED_EDGE('',*,*,#571,.F.);
#573=EDGE_LOOP('',(#572));
#574=FACE_BOUND('',#573,.T.);
#575=CARTESIAN_POINT('',(21.6433043613,-5.9832869856,-17.8410191337));
#576=DIRECTION('',(0.0,0.0,1.0));
#577=DIRECTION('',(1.0,0.0,-0.0));
#578=AXIS2_PLACEMENT_3D('',#575,#576,#577);
#579=TOROIDAL_SURFACE('',#578,8.0,1.0);
#580=ADVANCED_FACE('n° 411',(#563,#574),#579,.F.);
#581=ORIENTED_EDGE('',*,*,#63,.F.);
#582=EDGE_LOOP('',(#581));
#583=FACE_OUTER_BOUND('',#582,.T.);
#584=ORIENTED_EDGE('',*,*,#571,.T.);
#585=EDGE_LOOP('',(#584));
#586=FACE_BOUND('',#585,.T.);
#587=CARTESIAN_POINT('',(21.6433043613,-5.9832869856,-17.8410191337));
#588=DIRECTION('',(-0.0,-0.0,-1.0));
#589=DIRECTION('',(-1.0,0.0,0.0));
#590=AXIS2_PLACEMENT_3D('',#587,#588,#589);
#591=TOROIDAL_SURFACE('',#590,10.0,1.0);
#592=ADVANCED_FACE('n° 414',(#583,#586),#591,.T.);
#593=CARTESIAN_POINT('',(21.6966786555,-9.9852541601,-19.5910191337));
#594=VERTEX_POINT('',#593);
#595=CARTESIAN_POINT('',(21.6966786555,-9.9852541601,-24.3410191337));
#596=DIRECTION('',(0.0,1.0,0.0));
#597=DIRECTION('',(0.0,-0.0,1.0));
#598=AXIS2_PLACEMENT_3D('',#595,#596,#597);
#599=CIRCLE('',#598,4.75);
#600=EDGE_CURVE('n° 452',#594,#594,#599,.T.);
#601=ORIENTED_EDGE('',*,*,#600,.F.);
#602=EDGE_LOOP('',(#601));
#603=FACE_OUTER_BOUND('',#602,.T.);
#604=ORIENTED_EDGE('',*,*,#262,.T.);
#605=EDGE_LOOP('',(#604));
#606=FACE_BOUND('',#605,.T.);
#607=CARTESIAN_POINT('',(21.6966786555,-9.9852541601,-24.3410191337));
#608=DIRECTION('',(-0.0,1.0,-0.0));
#609=DIRECTION('',(0.0,0.0,1.0));
#610=AXIS2_PLACEMENT_3D('',#607,#608,#609);
#611=CYLINDRICAL_SURFACE('',#610,4.75);
#612=ADVANCED_FACE('n° 458',(#603,#606),#611,.F.);
#613=ORIENTED_EDGE('',*,*,#600,.T.);
#614=EDGE_LOOP('',(#613));
#615=FACE_OUTER_BOUND('',#614,.T.);
#616=CARTESIAN_POINT('',(21.6966786555,-9.9852541601,-24.3410191337));
#617=DIRECTION('',(0.0,1.0,0.0));
#618=DIRECTION('',(0.0,-0.0,1.0));
#619=AXIS2_PLACEMENT_3D('',#616,#617,#618);
#620=PLANE('',#619);
#621=ADVANCED_FACE('n° 463',(#615),#620,.T.);
#622=CARTESIAN_POINT('',(38.6433043613,-1.6063926112,-25.8410191337));
#623=DIRECTION('',(0.0,1.0,0.0));
#624=VECTOR('',#623,1.0);
#625=LINE('',#622,#624);
#626=EDGE_CURVE('n° 764',#485,#174,#625,.T.);
#627=ORIENTED_EDGE('',*,*,#626,.F.);
#628=ORIENTED_EDGE('',*,*,#490,.T.);
#629=ORIENTED_EDGE('',*,*,#75,.T.);
#630=ORIENTED_EDGE('',*,*,#185,.F.);
#631=EDGE_LOOP('',(#627,#628,#629,#630));
#632=FACE_OUTER_BOUND('',#631,.T.);
#633=CARTESIAN_POINT('',(38.6433043613,-7.9852541601,0.0));
#634=DIRECTION('',(-1.0,0.0,0.0));
#635=DIRECTION('',(0.0,0.0,1.0));
#636=AXIS2_PLACEMENT_3D('',#633,#634,#635);
#637=PLANE('',#636);
#638=ADVANCED_FACE('n° 623',(#632),#637,.T.);
#639=ORIENTED_EDGE('',*,*,#504,.F.);
#640=CARTESIAN_POINT('',(34.6433043613,-1.6063926112,-25.8410191337));
#641=DIRECTION('',(0.0,1.0,0.0));
#642=VECTOR('',#641,1.0);
#643=LINE('',#640,#642);
#644=EDGE_CURVE('n° 761',#493,#172,#643,.T.);
#645=ORIENTED_EDGE('',*,*,#644,.T.);
#646=ORIENTED_EDGE('',*,*,#251,.T.);
#647=ORIENTED_EDGE('',*,*,#123,.F.);
#648=EDGE_LOOP('',(#639,#645,#646,#647));
#649=FACE_OUTER_BOUND('',#648,.T.);
#650=CARTESIAN_POINT('',(34.6433043613,-7.9852541601,0.0));
#651=DIRECTION('',(-1.0,0.0,0.0));
#652=DIRECTION('',(0.0,0.0,1.0));
#653=AXIS2_PLACEMENT_3D('',#650,#651,#652);
#654=PLANE('',#653);
#655=ADVANCED_FACE('n° 627',(#649),#654,.F.);
#656=ORIENTED_EDGE('',*,*,#498,.F.);
#657=ORIENTED_EDGE('',*,*,#626,.T.);
#658=ORIENTED_EDGE('',*,*,#179,.F.);
#659=ORIENTED_EDGE('',*,*,#644,.F.);
#660=EDGE_LOOP('',(#656,#657,#658,#659));
#661=FACE_OUTER_BOUND('',#660,.T.);
#662=CARTESIAN_POINT('',(34.6433043613,-1.6063926112,-25.8410191337));
#663=DIRECTION('',(0.0,0.0,1.0));
#664=DIRECTION('',(1.0,0.0,-0.0));
#665=AXIS2_PLACEMENT_3D('',#662,#663,#664);
#666=PLANE('',#665);
#667=ADVANCED_FACE('n° 801',(#661),#666,.T.);
#668=CLOSED_SHELL('\X2\51F853F0\X0\-\X2\62C94F38\X0\2',(
    #55,#170,#271,#296,#321,#345,#370,#394,#419,#436,
    #452,#474,#514,#531,#543,#560,#580,#592,#612,#621,
    #638,#655,#667));
#669=MANIFOLD_SOLID_BREP('\X2\51F853F0\X0\-\X2\62C94F38\X0\2',#668);
#670=DRAUGHTING_PRE_DEFINED_COLOUR('white');
#671=FILL_AREA_STYLE_COLOUR('',#670);
#672=FILL_AREA_STYLE('',(#671));
#673=SURFACE_STYLE_FILL_AREA(#672);
#674=SURFACE_SIDE_STYLE('',(#673));
#675=SURFACE_STYLE_USAGE(.BOTH.,#674);
#676=PRESENTATION_STYLE_ASSIGNMENT((#675));
#677=STYLED_ITEM('',(#676),#669);
#678=CARTESIAN_POINT('\X2\539F70B9\X0\',(0.0,0.0,0.0));
#679=GEOMETRIC_CURVE_SET('\X2\539F70B9\X0\',(#678));
#680=CARTESIAN_POINT('',(0.,0.,0.));
#681=DIRECTION('',(0.,0.,1.));
#682=DIRECTION('',(1.,0.,0.));
#683=AXIS2_PLACEMENT_3D('Reference Axes',#680,#681,#682);
#684=SHAPE_REPRESENTATION('',(#683,#669,#679),#5);
#685=SHAPE_DEFINITION_REPRESENTATION(#12,#684);
#686=MECHANICAL_DESIGN_GEOMETRIC_PRESENTATION_REPRESENTATION('',(#677),#5);
ENDSEC;
END-ISO-10303-21;
